<?xml version="1.0" encoding="UTF-8"?>
<svg xmlns="http://www.w3.org/2000/svg" width="102" height="47" viewBox="0 0 102 47" fill="none">
  <path d="M11.0631 5.22517L10.5518 1.32645C12.2151 1.18745 13.8876 1.4477 15.4301 2.08553C16.9725 2.72336 18.3404 3.72033 19.4198 4.99348L16.304 7.39024C15.6465 6.66262 14.8347 6.09127 13.9279 5.71804C13.021 5.3448 12.0422 5.17913 11.0631 5.23316" fill="#78BE20"></path>
  <path d="M4.89568 12.6548C5.02372 13.6279 5.37061 14.5593 5.91031 15.3791L2.78654 17.7759C1.82858 16.4074 1.2132 14.8289 0.992147 13.1731C0.771098 11.5173 0.950839 9.83262 1.51626 8.26074L5.15933 9.76271C4.85402 10.6944 4.76389 11.6832 4.89568 12.6548Z" fill="#78BE20"></path>
  <path d="M17.9424 10.9297C17.8109 9.95743 17.4643 9.02674 16.9277 8.20535L20.0515 5.80859C21.0025 7.17625 21.6133 8.75115 21.8331 10.4024C22.0571 12.0587 21.8762 13.7446 21.3058 15.3157L17.6787 13.8217C17.9867 12.8906 18.0796 11.9018 17.9504 10.9297" fill="#78BE20"></path>
  <path d="M17.2792 14.7725L20.9142 16.2744C20.2006 17.7837 19.1378 19.1013 17.8139 20.1182C16.4899 21.1352 14.9428 21.8222 13.3005 22.1225L12.7812 18.2238C13.742 18.0232 14.6453 17.6088 15.424 17.0113C16.2026 16.4138 16.8367 15.6486 17.2792 14.7725Z" fill="#78BE20"></path>
  <path d="M5.54311 8.80398L1.91602 7.30201C2.62848 5.79271 3.69105 4.47536 5.01534 3.45957C6.33963 2.44377 7.88734 1.75889 9.52971 1.46191L10.041 5.35265C9.08173 5.55702 8.18015 5.9729 7.40201 6.56998C6.62387 7.16706 5.9888 7.93028 5.54311 8.80398Z" fill="#78BE20"></path>
  <path d="M11.7668 18.3907L12.2782 22.2894C10.6147 22.429 8.94205 22.1691 7.39948 21.5312C5.8569 20.8933 4.48913 19.896 3.41016 18.6223L6.52594 16.2256C7.18189 16.9556 7.99329 17.529 8.90034 17.9037C9.80738 18.2784 10.7869 18.4448 11.7668 18.3907Z" fill="#78BE20"></path>
  <path d="M25.0202 20.0933L23.0469 16.6979C24.5271 15.9311 26.1685 15.5275 27.8356 15.5206C29.5026 15.5137 31.1473 15.9035 32.6339 16.658L30.6925 20.0693C29.8067 19.6471 28.8377 19.4279 27.8564 19.4279C26.875 19.4279 25.9061 19.6471 25.0202 20.0693" fill="#78BE20"></path>
  <path d="M22.1843 29.3365C22.681 30.1841 23.3606 30.9102 24.1736 31.4616L22.2163 34.873C20.8055 33.9768 19.6303 32.7553 18.7893 31.3109C17.9482 29.8666 17.4659 28.2416 17.3828 26.5723H21.3215C21.396 27.5497 21.691 28.4975 22.1843 29.3445" fill="#78BE20"></path>
  <path d="M33.5694 22.7055C33.0726 21.8601 32.3929 21.1367 31.5801 20.5883L33.5374 17.1689C34.9408 18.0697 36.1082 19.2932 36.9421 20.7373C37.776 22.1814 38.2522 23.804 38.3309 25.4697H34.3923C34.319 24.4896 34.024 23.5389 33.5294 22.6895" fill="#78BE20"></path>
  <path d="M34.4553 26.5166H38.386C38.3078 28.1857 37.8319 29.8119 36.9982 31.2599C36.1644 32.7079 34.9967 33.9358 33.5925 34.8413L31.6191 31.4459C32.4323 30.8907 33.1097 30.159 33.6008 29.3055C34.0918 28.452 34.3839 27.4987 34.4553 26.5166Z" fill="#78BE20"></path>
  <path d="M21.3135 25.5337H17.3828C17.4617 23.8648 17.9378 22.2388 18.7715 20.7909C19.6052 19.343 20.7725 18.115 22.1763 17.209L24.1576 20.6044C23.3484 21.1605 22.6748 21.8917 22.1866 22.7436C21.6984 23.5955 21.4082 24.5464 21.3375 25.5257" fill="#78BE20"></path>
  <path d="M30.7328 31.9727L32.7062 35.3681C31.2265 36.1368 29.5849 36.5414 27.9175 36.5483C26.2501 36.5553 24.6051 36.1644 23.1191 35.408L25.0605 31.9727C25.9459 32.3966 26.915 32.6167 27.8967 32.6167C28.8783 32.6167 29.8475 32.3966 30.7328 31.9727Z" fill="#78BE20"></path>
  <path d="M32.754 9.04395L36.3172 10.2503C35.8847 11.3081 35.212 12.2507 34.3523 13.0036C33.4926 13.7566 32.4695 14.2991 31.3639 14.5884L30.6289 10.9134C31.0904 10.7602 31.5163 10.5157 31.8813 10.1945C32.2464 9.87337 32.5432 9.48209 32.754 9.04395Z" fill="#78BE20"></path>
  <path d="M29.2067 3.76296L28.4717 0.0799482C29.6052 -0.0736854 30.7588 0.0367427 31.8425 0.402611C32.9263 0.768479 33.9108 1.37988 34.7192 2.18909L31.8911 4.67373C31.526 4.35214 31.1007 4.10607 30.64 3.94975C30.1793 3.79342 29.6921 3.72994 29.2067 3.76296Z" fill="#78BE20"></path>
  <path d="M33.0661 6.71123C32.9699 6.23384 32.7798 5.78032 32.5068 5.37704L35.335 2.90039C36.036 3.80416 36.5171 4.8586 36.7403 5.98034C36.9635 7.10208 36.9228 8.26037 36.6213 9.36364L33.0661 8.15728C33.158 7.67964 33.158 7.18887 33.0661 6.71123Z" fill="#78BE20"></path>
  <path d="M25.8512 8.1486C25.9474 8.62599 26.1375 9.07951 26.4105 9.48279L23.5903 11.9994C22.8859 11.0952 22.4018 10.0393 22.1762 8.91556C21.9532 7.79465 21.997 6.63699 22.304 5.53613L25.8512 6.7425C25.7593 7.22013 25.7593 7.71091 25.8512 8.18854" fill="#78BE20"></path>
  <path d="M29.7096 11.0973L30.4446 14.7723C29.3123 14.9278 28.1593 14.8182 27.0766 14.4522C25.9938 14.0862 25.0108 13.4738 24.2051 12.6632L27.0253 10.1865C27.7649 10.8322 28.7297 11.1596 29.7096 11.0973Z" fill="#78BE20"></path>
  <path d="M26.1628 5.81616L22.5996 4.6018C23.0348 3.54569 23.7084 2.60456 24.5676 1.85199C25.4269 1.09942 26.4486 0.555813 27.5529 0.263672L28.2879 3.94669C27.8277 4.10236 27.4029 4.34774 27.0382 4.66863C26.6734 4.98952 26.3759 5.37955 26.1628 5.81616Z" fill="#78BE20"></path>
  <path d="M43.1797 36.1114V20.8281H46.5431V33.475H54.4764V36.1114H43.1797Z" fill="white"></path>
  <path d="M60.5717 23.4566V27.1715H67.9697V29.7121H60.5717V33.475H68.497V36.1114H57.1523V20.8281H68.497V23.4566H60.5717Z" fill="white"></path>
  <path d="M85.1076 36.1106H81.6962V31.1733H74.8655V36.1026H71.4541V24.8778C71.4541 22.7048 71.6379 20.6436 78.2849 20.6436C84.9319 20.6436 85.1076 22.7048 85.1076 24.8778V36.1106ZM81.6962 25.3811C81.6962 23.7833 81.6004 23.0243 78.2849 23.0243C74.9693 23.0243 74.8655 23.7833 74.8655 25.3811V28.5768H81.6962V25.3811Z" fill="white"></path>
  <path d="M98.2574 36.1114L91.4826 25.2701H91.3867V36.1114H88.2949V20.8281H91.938L98.7208 31.6615H98.8087V20.8281H101.901V36.1114H98.2574Z" fill="white"></path>
  <path d="M24.3016 46.2658C21.9048 46.2658 21.6172 45.6186 21.6172 44.6679V41.7199C21.6172 40.7452 21.8808 40.1221 24.3016 40.1221C26.7223 40.1221 26.9779 40.7772 26.9779 41.7199V42.0794H26.179V41.7998C26.179 41.0568 26.0672 40.6573 24.3335 40.6573C22.5999 40.6573 22.472 41.0568 22.472 41.7998V44.5561C22.472 45.3071 22.5919 45.6985 24.3255 45.6985C26.0592 45.6985 26.171 45.3071 26.171 44.5561V44.1007H26.9699V44.636C26.9699 45.6186 26.7063 46.2338 24.2936 46.2338" fill="white"></path>
  <path d="M30.7252 46.2571C28.6481 46.2571 28.4004 45.618 28.4004 44.7951V43.2532C28.4004 42.4543 28.6481 41.7832 30.7252 41.7832C32.8024 41.7832 33.0421 42.4223 33.0421 43.2532V44.7951C33.0421 45.594 32.7944 46.2571 30.7252 46.2571ZM32.2592 43.3411C32.2592 42.7339 32.1713 42.3185 30.7252 42.3185C29.2792 42.3185 29.1753 42.7339 29.1753 43.3411V44.6993C29.1753 45.3064 29.2792 45.7219 30.7252 45.7219C32.1713 45.7219 32.2592 45.3064 32.2592 44.6993V43.3411Z" fill="white"></path>
  <path d="M41.2389 46.2015V43.4292C41.2389 42.7262 41.119 42.3587 39.9366 42.3587C39.1377 42.3587 38.6264 42.6862 38.6264 43.4692V46.2015H37.8275V43.4292C37.8275 42.7262 37.7156 42.3587 36.5253 42.3587C35.7263 42.3587 35.215 42.6862 35.215 43.4692V46.2015H34.4561V41.8314H35.1271L35.255 42.3587C35.437 42.1559 35.6642 41.9989 35.9182 41.9003C36.1722 41.8018 36.4459 41.7645 36.717 41.7915C37.6917 41.7915 38.211 42.0551 38.4586 42.4626C38.6515 42.2323 38.8961 42.0508 39.1723 41.9328C39.4486 41.8148 39.7487 41.7636 40.0485 41.7835C41.7102 41.7835 41.9899 42.4466 41.9899 43.3014V46.2015H41.2389Z" fill="white"></path>
  <path d="M50.2739 46.2019V43.4297C50.2739 42.7266 50.1541 42.3591 48.9637 42.3591C48.1648 42.3591 47.6615 42.6867 47.6615 43.4696V46.2019H46.8626V43.4297C46.8626 42.7266 46.7507 42.3591 45.5523 42.3591C44.7534 42.3591 44.2501 42.6867 44.2501 43.4696V46.2019H43.4512V41.8319H44.1143L44.2181 42.3512C44.4017 42.1482 44.6304 41.9912 44.8857 41.8927C45.141 41.7942 45.4158 41.7569 45.6881 41.7839C46.6628 41.7839 47.1821 42.0476 47.4298 42.455C47.629 42.2158 47.8842 42.0294 48.1726 41.9124C48.4611 41.7953 48.774 41.7512 49.0836 41.7839C50.7453 41.7839 51.0249 42.447 51.0249 43.3019V46.2019H50.2739Z" fill="white"></path>
  <path d="M56.2341 46.2011L56.1223 45.6978C55.9203 45.9123 55.6697 46.0751 55.3916 46.1724C55.1135 46.2697 54.8161 46.2988 54.5245 46.2571C52.6869 46.2571 52.4473 45.594 52.4473 44.7391V41.8311H53.2462V44.6113C53.2462 45.3143 53.3341 45.6818 54.6842 45.6818C55.7788 45.6818 56.1223 45.3543 56.1223 44.5713V41.8311H56.9212V46.2011H56.2341Z" fill="white"></path>
  <path d="M62.1698 46.2018V43.4296C62.1698 42.7266 62.034 42.359 60.6838 42.359C59.5973 42.359 59.2138 42.6866 59.2138 43.4695V46.2018H58.4229V41.8318H59.0939L59.2218 42.359C59.4295 42.0395 59.9248 41.7998 60.8196 41.7998C62.6571 41.7998 62.9367 42.4629 62.9367 43.3178V46.2178L62.1698 46.2018Z" fill="white"></path>
  <path d="M64.4473 40.5449H65.2462V41.232H64.4473V40.5449ZM64.4473 41.8392H65.2462V46.2093H64.4473V41.8392Z" fill="white"></path>
  <path d="M68.9449 46.2571C66.8837 46.2571 66.668 45.618 66.668 44.7871V43.2612C66.668 42.4623 66.8837 41.7832 68.9449 41.7832C71.0061 41.7832 71.2058 42.4303 71.2058 43.2612V43.3651H70.4069C70.4069 42.7419 70.4069 42.3584 68.9449 42.3584C67.4829 42.3584 67.4429 42.7819 67.4429 43.389V44.7392C67.4429 45.3464 67.5228 45.7618 68.9449 45.7618C70.367 45.7618 70.4069 45.3064 70.4069 44.6993V44.6194H71.2058V44.7552C71.2058 45.5541 70.9901 46.2252 68.9449 46.2252" fill="white"></path>
  <path d="M76.5507 46.2012L76.4388 45.6979C76.1517 45.9215 75.8232 46.0861 75.4722 46.1821C75.1211 46.278 74.7546 46.3036 74.3936 46.2571C73.1074 46.2571 72.4922 45.6899 72.4922 44.9789C72.4922 44.2678 72.8757 43.5728 74.841 43.5728H76.4388V43.3491C76.4388 42.6301 76.1033 42.3185 75.0088 42.3185C73.9143 42.3185 73.5228 42.5582 73.5228 42.9576L72.7239 42.8937C72.7239 42.1587 73.5228 41.7832 74.9928 41.7832C76.7265 41.7832 77.1978 42.3424 77.1978 43.2612V46.2012H76.5507ZM76.4388 44.1081H74.841C73.4509 44.1081 73.2432 44.6114 73.2432 44.9629C73.2432 45.3144 73.5627 45.6819 74.4895 45.6819C75.7757 45.6819 76.4069 45.3224 76.4069 44.6753L76.4388 44.1081Z" fill="white"></path>
  <path d="M81.7678 46.1135C81.3855 46.2042 80.9943 46.2524 80.6014 46.2573C79.6986 46.2573 78.9317 45.9617 78.9317 45.0509V42.3586H78.2686V41.8153H78.9317V40.7607H79.7306V41.8233H81.7758V42.3586H79.7066V44.995C79.7066 45.4983 80.1061 45.6901 80.6973 45.6901C81.0576 45.6848 81.4164 45.642 81.7678 45.5622V46.1135Z" fill="white"></path>
  <path d="M83.126 40.5449H83.9249V41.232H83.126V40.5449ZM83.126 41.8392H83.9249V46.2093H83.126V41.8392Z" fill="white"></path>
  <path d="M87.6715 46.2571C85.5943 46.2571 85.3467 45.618 85.3467 44.7951V43.2532C85.3467 42.4543 85.5943 41.7832 87.6715 41.7832C89.7487 41.7832 89.9884 42.4223 89.9884 43.2532V44.7951C89.9884 45.594 89.7407 46.2571 87.6715 46.2571ZM89.2134 43.3411C89.2134 42.7339 89.1176 42.3185 87.6715 42.3185C86.2255 42.3185 86.1216 42.7339 86.1216 43.3411V44.6993C86.1216 45.3064 86.2255 45.7219 87.6715 45.7219C89.1176 45.7219 89.2134 45.3064 89.2134 44.6993V43.3411Z" fill="white"></path>
  <path d="M95.174 46.2012V43.429C95.174 42.7259 95.0382 42.3584 93.688 42.3584C92.5935 42.3584 92.2101 42.686 92.2101 43.4689V46.2012H91.4111V41.8311H92.0742L92.1861 42.3424C92.3938 42.0229 92.8891 41.7832 93.7839 41.7832C95.6214 41.7832 95.9011 42.4463 95.9011 43.3011V46.2012H95.174Z" fill="white"></path>
  <path d="M99.5593 46.2577C97.7857 46.2577 97.2744 45.7544 97.2744 44.9475V44.8995H98.0733C98.0733 45.5147 98.5607 45.6984 99.5753 45.6984C100.997 45.6984 101.085 45.2031 101.085 45.0034C101.085 44.6598 100.933 44.4921 100.51 44.4282L98.4648 44.1086C97.6659 43.9808 97.2904 43.6212 97.2904 43.07C97.2904 42.5187 97.4662 41.7598 99.5433 41.7598C101.293 41.7598 101.78 42.2551 101.78 43.062V43.1579H100.981C100.981 42.5507 100.526 42.359 99.5274 42.359C98.2171 42.359 98.0574 42.7904 98.0574 43.054C98.0574 43.3177 98.1692 43.5334 98.5846 43.5973L100.638 43.9089C101.533 44.0447 101.844 44.4841 101.844 44.9315C101.844 45.5466 101.668 46.2976 99.5593 46.2976" fill="white"></path>
</svg>
